<svg xmlns="http://www.w3.org/2000/svg" viewBox="0 0 890.82 890.82"><g id="Layer_2" data-name="Layer 2"><g id="Layer_5" data-name="Layer 5"><path d="M251.59,339.13s-18.43-63.78-40.8-85.85c0,0,18.67,19.61-3.54,47.31,0,0-13.07,16.91-22.56,9,0,0-7.05-6.13,2.41-17,0,0,13-14.13,14.42,1.67,0,0,11.73-13.77,3.31-33.08,0,0-9.47,13.16-13.84,8.94,0,0-4.07-2.7,7.09-14.06,0,0-16-6.81-27.31,7,0,0-14,16.66,4.2,16.38,0,0,5.78-.21-3.39,7.92,0,0,12.6,1.41,3.13,13.59,0,0-7.22,9.07-13.61,4.65,0,0-5.78-3.22-.52-10.95,0,0-8.22,4.69-17.28-3.22,0,0-11.11-11.48,10-35.35,0,0,22.51-29.13,51.55-8,0,0-27.84-38.06-64.45-5.08,0,0,16.47-26.33-31.41-90.07,69.79,38.54,93.56,18.57,93.56,18.57-27.56,40.84,14,63.11,14,63.11-25-25.81.75-52.16.75-52.16,20.7-24.19,33.63-14.78,33.63-14.78,9.08,7.87,5.59,16.66,5.59,16.66,6.91-6.28,10.91-1,10.91-1,5.27,5.71-2.71,14.12-2.71,14.12-10.74,11.07-13.89-1.21-13.89-1.21-6.78,10.22-7.37,4.46-7.37,4.46-2.26-18.08-16.81-1.88-16.81-1.88-12.08,13.09-3.11,28-3.11,28,9.7-12.63,12.94-9,12.94-9,4.78,3.75-6.93,15-6.93,15,20.3,5.65,32.3-7.89,32.3-7.89-15.85.81-3.66-14-3.66-14,9.45-10.88,16.5-4.76,16.5-4.76,9.12,8.31-5.81,23.6-5.81,23.6-24.34,25.86-46.35,10.09-46.35,10.09,25,19.08,90.69,28.46,90.69,28.46" fill="#fff"/><line x1="198.08" y1="256.09" x2="223.51" y2="226.83" fill="#fff"/><line x1="229.52" y1="232.81" x2="204.83" y2="261.21" fill="#fff"/><path d="M426.3,172.08c-151,10.55-264.78,141.49-254.22,292.44S313.57,729.3,464.52,718.74a40,40,0,1,0-5.58-79.8c-106.88,7.47-199.58-73.12-207.06-180s73.11-199.58,180-207.06,199.58,73.11,207.06,180a40,40,0,0,0,79.8-5.58C708.19,275.34,577.25,161.52,426.3,172.08Zm24.5,517,2.44-.32a8,8,0,0,0,3.48,3.57,17.72,17.72,0,0,0,4.78,1.92,8.72,8.72,0,0,0,4.4,0,4.8,4.8,0,0,0,3.05-2.3,2.76,2.76,0,0,0-.13-3.2,3.73,3.73,0,0,1-1-2.15l.09-.68-.41-.19v-.34l-.27-.2,0-.29-.44-.36,0,.17-.14,0-.22.1-.16-.27-.1.17-.25-.06.09.16-.15.26h-.14l-.15.21-.11.06-.16.13-.48.29-1.4-.75a42.78,42.78,0,0,0-5.19-2,15.78,15.78,0,0,1-6.26-3.84,41.17,41.17,0,0,1-5.34-7.28l1.1-2.69a15,15,0,0,1,7.77-9.23,17.71,17.71,0,0,1,5.84-2,19.51,19.51,0,0,1,5.07-.13,12.36,12.36,0,0,1,5,2,10,10,0,0,1,3.69,3.57,5.22,5.22,0,0,1,.36,3.92,8.17,8.17,0,0,1-2.17,3.65,8.87,8.87,0,0,1-3.2,2.16,6.52,6.52,0,0,1-2.79.45,33.82,33.82,0,0,0-1.19-4.4,9.32,9.32,0,0,0,3.95-.15,2.73,2.73,0,0,0,1.72-2.23,3.94,3.94,0,0,0-1-3.43,8,8,0,0,0-2.89-2.32,11,11,0,0,0-3.73-.77,11.59,11.59,0,0,0-4.31.57,8.87,8.87,0,0,0-3.75,2.48,7.5,7.5,0,0,0-2,3.72l-.85,1.05.43,1.37c.29.09.61.64,1,1.64q.92,2.13,7.53,5.12,6.88,2.31,9.2,4a11.11,11.11,0,0,1,3.36,3.5l1.84,3.28-1.17,1.68a18.74,18.74,0,0,1-1.49,3.41,11.13,11.13,0,0,1-2.71,3.27,9.51,9.51,0,0,1-3.2,1.8,19.73,19.73,0,0,1-4,.63c-1.67.12-3.11.17-4.31.15a9.94,9.94,0,0,0-3.66.63l-1.83.64A41.17,41.17,0,0,0,450.8,689.09ZM222.6,578a7.75,7.75,0,0,1-1.13-4.8,17.1,17.1,0,0,1,2.29-7.54q2.27-4.27,16.51-19.08l3.79-3.76q-.19-.18-14.34,1.18l-2.74-.28-2.89.17-2.39.8a15.55,15.55,0,0,0-3,.43l-.4.2-.37.19-.38.19q-1.57.79.22,4.35l.22.45c0,.21-.12.41-.46.57l-1.15.58a.55.55,0,0,1-.85-.26,49,49,0,0,0-3.05-6.73l.05-.15.36-.09-.11-1.83-.75-.12-.91-.51-.89-1.75c0-.24.11-.43.43-.59l.6-.31a1,1,0,0,1,1.45.46,5.67,5.67,0,0,0,3.59,1.2l10.31-.24q10.34-.27,15.37-.61c3.37-.23,5.37-.72,6-1.44s.64-1.76,0-3.06c-.22-.43,0-.8.55-1.09.85-.43,1.35-.49,1.5-.19l1.7,3.81,1,3,.46.52.34.68.52.11-.49,1.56a.82.82,0,0,0,1.11,0l1,1.65.15,0,0,.1-.1,0,.15.05.61,1.2c.22.43-.07.84-.85,1.24l-.3.15c-.45.23-.86,0-1.23-.76-.71-1.42-1.64-2-2.78-1.79q-1.23.62-8.19,8.14l-1.95.35-.44,1.2-1.34.86.62.88q-7,7.66-9.84,11.14-2.67,2.65-3.07,4.53t-.66,3.24a7.43,7.43,0,0,0,.67,3.74C224.9,579.72,223.39,579,222.6,578Zm76.64,56.72a7.85,7.85,0,0,1,1.66,1.12l-2.54,3.53a23.8,23.8,0,0,0-2.39,4.08,3.59,3.59,0,0,0-.09,2.29,7,7,0,0,0,1.94,2.77l-2.2,1.11-13.77-11.68-.52-.43-.43-1.27-.73-.39-.26-.22a56,56,0,0,1-6.52-4.51,21.39,21.39,0,0,0,3.69-4.54l2-4.13,2.49-.15a23.64,23.64,0,0,0-.48,6.61c.2,1.4.43,2.74.7,4s1.32,2.91,3.17,4.86l2,1,.66.56,1.23-.11.55-.67,1.61-.88,1.71-3.1,4.42-5.32-5.46-4.72L290,623.19a5.87,5.87,0,0,0-2.19.2,16.41,16.41,0,0,0-1.91.87l-1.63-1.36,7.34-9.08,1.64,1.62A7.6,7.6,0,0,0,291.9,619c-.15,1.26.47,2.46,1.84,3.61l3,2.43,2.4,1.89,6.94-8.35q1.55-2.59,1.2-3.21a6.1,6.1,0,0,0-1.46-1.57A42.45,42.45,0,0,0,302,611.1l.47-.56.75-.07-.8-1.14-.92.62a57.82,57.82,0,0,1-5.64-5.38c-1.83-2-3-3.25-3.66-3.81a7.73,7.73,0,0,0-2.89-1.46c-1.31-.41-1.53-1.08-.66-2s1.51-1.24,1.93-.9,1.41,1,3,2.07a15.57,15.57,0,0,1,3.46,2.88,30.68,30.68,0,0,0,3.77,3.55q2.66,2.22,7.28,6.32t6.07,5.16l2.75,2c.88.66,1.95,1.52,3.23,2.58l-1.22,1.21a6.87,6.87,0,0,0-3-1.21,4.76,4.76,0,0,0-2.06.54A18.79,18.79,0,0,0,310,625.2l-7.48,9.21-.73-.13-.34.41-.58-.05-.48-.21-.17-.32-.25-.22-.37-.3-.34.15-.47.56Zm85.69,18.39a26.18,26.18,0,0,0-4.77,1.39l-7.8,24-1,1.11-.38,2.65q4,1.51,5.47.64c1-.58,2-1.17,3-1.77l1.18-.26c.39-1.07.78-2.18,1.16-3.33l1.84.84-5.29,10.55a1.92,1.92,0,0,1-2.06-.71l-1-.36-3.09-1.08c-.47-.94-4.6-2.21-12.36-3.8l-3.05-1-1.55-.49-1.55-.48a51,51,0,0,0,1.66-11.42l2.26-.76a17.66,17.66,0,0,0,1.13,5.92,9.79,9.79,0,0,0,2.05,3.44,6.13,6.13,0,0,0,2.93,1.39l3.92-11.76,1.21-3.55,1.26-2.56,1.36-.82.52-2.45-.39-2.38q.93-4.14-.42-6.47l-1.61-1.21.64-1.92a50,50,0,0,1,6.69,2.59,9.16,9.16,0,0,0,3.91,1.25,17.2,17.2,0,0,1,5,1.12ZM229.27,440.39c0,.54.25,1.73.61,3.57a15.91,15.91,0,0,1,.36,4.5,31,31,0,0,0,.09,5.17q.28,3.45.58,9.63t.55,7.95c.17,1.17.33,2.3.47,3.38s.28,2.46.42,4.11l-1.72,0a6.86,6.86,0,0,0-1.21-3,4.5,4.5,0,0,0-1.83-1.09,18.06,18.06,0,0,0-5.36-.22l-11.82,1.09-.42-.61-.53.05-.37-.45-.18-.49.11-.35,0-.33,0-.48-.35-.14-.73.06.06.64a7.89,7.89,0,0,1,.35,2L204,476a24.5,24.5,0,0,0-4.59,1.14,3.68,3.68,0,0,0-1.7,1.54,7,7,0,0,0-.61,3.32l-2.34-.79-1.28-18-.06-.67.61-1.2-.23-.8,0-.33a58,58,0,0,1-1.33-7.82,21.33,21.33,0,0,0,5.83-.54l4.38-1.43,1.84,1.68a23.7,23.7,0,0,0-5.06,4.28c-.85,1.12-1.65,2.22-2.39,3.31s-1.15,3-1.25,5.66l.64,2.14.07.87.94.79.86-.07,1.76.53,3.41-.94,6.89-.56-.44-7.21-.17-2.15a6,6,0,0,0-1.68-1.42,16,16,0,0,0-1.95-.76l-.17-2.12,11.62-1.1v2.3a7.79,7.79,0,0,0-3.51,1.49q-1.5,1.17-1.29,3.84l.37,3.85.33,3,10.82-.87c1.95-.47,3-.93,3.13-1.38a5.94,5.94,0,0,0,.1-2.15,43.49,43.49,0,0,0-.76-4.61l.72-.06.57.49.26-1.37-1.09-.22a59.34,59.34,0,0,1-.09-7.8c.14-2.69.2-4.45.17-5.28a7.8,7.8,0,0,0-1-3.08c-.62-1.23-.29-1.86,1-1.89S229.23,439.85,229.27,440.39ZM257.76,358a5.28,5.28,0,0,1-.62,3.58,11.11,11.11,0,0,1-2.92,4,28,28,0,0,1-6.43,3.66c-3,1.35-5,1.66-6,1l-.59-1.39-1.43-.13-.17,1.18.44.51.24.52-.3.88-.56-.19q-11.31,1.92-26.88,4.73l20.71,6.56c2.19.47,3.46.6,3.82.39a7.32,7.32,0,0,0,1.57-2.75l1.81.77-4,11.81-1.24-.6a25.41,25.41,0,0,0-.35-2.65q-.18-.75-3.42-2.25l-12.63-4.77-7-1.84-6.55-2.21a7.53,7.53,0,0,0-4.46,1.52c-1,.87-1.85,1.67-2.6,2.41a8.4,8.4,0,0,0-1.82,3.86,8.27,8.27,0,0,1-1.58-4.77,9.62,9.62,0,0,1,2.23-5,18.65,18.65,0,0,1,6.57-5.12,46.21,46.21,0,0,1,10.79-3.69q6.34-1.41,19.41-3.52l-17.07-6.25c-2.32-.52-3.76-.61-4.31-.27a10.91,10.91,0,0,0-2.37,2.6l-1.88-.65L209,358l1.25-2.3c.06-1.67.85-4.71,2.35-9.11l1.25.67a7.48,7.48,0,0,0,.07,3.17q.36,1.13,3.27,2.91l27.81,9.7A33.24,33.24,0,0,0,252.1,362a4.52,4.52,0,0,0,2.84-1.9,2.59,2.59,0,0,0,.06-2.36c-.35-.78-.36-1.35,0-1.7s.82-.33,1.44.09A3.54,3.54,0,0,1,257.76,358Zm118-111.82c-1.14,1.11-2,1.94-2.59,2.49a23.68,23.68,0,0,1-4.07,2.62,12.8,12.8,0,0,1-5.19,1.88,30.61,30.61,0,0,1-5.09-.27,36.19,36.19,0,0,1-8-2.2,65.25,65.25,0,0,1-7-2.94c-1.36-.72-2.69-1.44-4-2.14s-2.35-1.28-3.18-1.71a10.17,10.17,0,0,1-2.38-1.79,16.81,16.81,0,0,1-2.13-.76l-2.42,3.49c.64,1.18,1.42,2.7,2.36,4.55a8.81,8.81,0,0,1,.92,3.86,6.14,6.14,0,0,1,2.29,1.58,3.48,3.48,0,0,0,1,1,1.49,1.49,0,0,0,1.11.18,6,6,0,0,0,1.46-.5,3.19,3.19,0,0,1,1.08-.37c.13,0,.32.26.56.7a3.27,3.27,0,0,1,.4.93c0,.14-.08.27-.3.38a52.73,52.73,0,0,0-11.7,8.74l-.27.15c-.27.14-.45.18-.57.13a3.09,3.09,0,0,1-.62-.93,1.46,1.46,0,0,1-.26-.71,1,1,0,0,1,.32-.46,5.69,5.69,0,0,0,1.28-1.15,3.58,3.58,0,0,0,.21-2.37,14.55,14.55,0,0,0-.56-2.69,17,17,0,0,0-1-2.2l-.61-1.13-.35-.64-1.67-3.52-.09-.88-.9-.56-3.8-7.18.12-.66,0-.76.29-.28-.53-.82-.75-.21-.49.14-1.33-2.46a18.34,18.34,0,0,0-2.33-3.39,1.92,1.92,0,0,0-1.31-.58,4.79,4.79,0,0,0-1.59.39,3.24,3.24,0,0,1-.91.2c-.1,0-.3-.33-.61-.91a1.51,1.51,0,0,1-.28-.85c0-.15.23-.33.61-.53l.64-.35a14.24,14.24,0,0,0,1.84-.89,28.57,28.57,0,0,1,4.12-1.68c.73-.07,1.42-.12,2.08-.16.41-.3.39-.64-.07-1a5,5,0,0,0,1.61-1,6.52,6.52,0,0,1,1.2-1l.54-.29c.36-.2.67-.06.92.4a3.59,3.59,0,0,1,.52,1.29c0,.19-.26.45-.74.79a3.12,3.12,0,0,0-1.45,1.58,3.36,3.36,0,0,0,.33,2.14,36.66,36.66,0,0,0,1.64,3.55c.87,1.71,1.88,3.65,3.05,5.82.95.74,1.72.62,2.31-.34a9.11,9.11,0,0,0,1.14-2.41c.25-.87.5-1.81.76-2.81s.68-2.36,1.25-4.09l1-1.22-.83-.72c.27-1.34.43-2.28.48-2.84a2.38,2.38,0,0,0-.22-1.34c-.33-.61-.72-.77-1.18-.48s-.72.31-.89.24a1.61,1.61,0,0,1-.56-.7,3.17,3.17,0,0,1-.43-1.06c0-.18.12-.33.35-.45l.22-.12c.86-.36,1.48-.63,1.84-.8a4.54,4.54,0,0,1,1.85-.26,28.86,28.86,0,0,0,5.38-3.82l.47-.25c.25-.13.45-.15.59-.05a2.3,2.3,0,0,1,.56.77c.27.49.37.8.32.92a5.66,5.66,0,0,1-.77.91c-.35.36-.65.67-.88.95a5.36,5.36,0,0,0-.7,1.07,18.25,18.25,0,0,0-.75,1.68c-.27.67-.61,1.58-1,2.71s-.81,2.29-1.24,3.45a25,25,0,0,0-1,5.89q6,3.91,11.51,7.48l2.78,1.78,1.39.88.19,1.07,1.11.58.88.64,1.93-.44,2.72.93q5.43,1.88,7.87,1.28a10.91,10.91,0,0,0,4.24-2,23.83,23.83,0,0,0,3.84-4.12C374.75,242.88,375.4,243.91,375.78,246.18ZM696,414.64l.06,1,.2,3.27q-1,1.2,1.31,12.87l.31,3.17.16,1.62.15,1.62A50,50,0,0,0,687,441.14l-1.57-1.79a18,18,0,0,0,5-3.34,9.77,9.77,0,0,0,2.37-3.23,6.16,6.16,0,0,0,.15-3.24l-12.36,1-3.75.27L674,430.6l-1.28-.93-2.46.47-2,1.29c-2.79.5-4.72,1.47-5.81,2.91l-.49,1.94-2,.16a50.25,50.25,0,0,1-.22-7.17,9.06,9.06,0,0,0-.37-4.08,17.49,17.49,0,0,1-.9-5l1.83.11a27.32,27.32,0,0,0,3.14,3.85L688.55,422l1.41.51,2.59-.68c-.1-2.82-.61-4.59-1.53-5.29s-1.86-1.38-2.79-2l-.7-1c-1.13.05-2.31.13-3.52.22l.07-2,11.77.77A1.91,1.91,0,0,1,696,414.64ZM431.23,193.05c.06.12.2.42.42.91a60.66,60.66,0,0,1,3.86,6.15c.65,1.3,1.16,2.38,1.52,3.23l.51,1.54-1-.21-.34.81.76,1.24,1.69.38,1.05,2.51,1,2.51,2.92.41-.82,4.24-1,.15c.77,2,1.4,3.5,1.86,4.49a4.54,4.54,0,0,1,.3,3.08l2.59,2.24a3,3,0,0,0,1.58.74c.59.09.9.19,1,.29a4.65,4.65,0,0,1,.12.9,1.21,1.21,0,0,1-.46,1.13q-10.11.66-10.76.74c-.44.05-.72.08-.85.08a5.34,5.34,0,0,1-2,0,1.86,1.86,0,0,1-.19-.89,2.37,2.37,0,0,1,0-.88c.05-.11.23-.19.54-.25a4.89,4.89,0,0,0,2.1-.73,1.41,1.41,0,0,0,.48-1.28,3.46,3.46,0,0,0-.13-.72c-.08-.29-.22-.72-.43-1.29s-.5-1.32-.88-2.27L435,217.92l-8.77,1.27-.31-.82a6.17,6.17,0,0,1-1.81,1.08l-.9,3.83q-.35,1.46-.54,2.31a9.33,9.33,0,0,0-.23,1.28,3.42,3.42,0,0,0,0,.7c.08,1.25,1.1,1.82,3,1.72l1.17.65,0,.47a3.34,3.34,0,0,1,0,.9c0,.11-.19.18-.47.2l-.56,0a5.31,5.31,0,0,1-.68,0l-5,.31a4.1,4.1,0,0,1-1.32.31l-2,.11-.52-.27-.76.45-.59.32-.13-.21-.69.16-.83.51c-1.15.45-1.8.53-2,.23s-.12-.5.14-.61l.12-.65c-.22-.14-.32-.29-.3-.47s.15-.32.4-.41a25.26,25.26,0,0,0,4.85-2,5.46,5.46,0,0,0,1-2.23,15.82,15.82,0,0,1,1.28-3.2,34.82,34.82,0,0,0,2-5,70.53,70.53,0,0,1,2.2-8.12,65.73,65.73,0,0,0,1.88-6.38,16.16,16.16,0,0,1,1.44-4.16q.86-1.51-1.5-3.74l1.51-2.86a38.24,38.24,0,0,0,4.19-.63,1.65,1.65,0,0,1,.55-.13C431.05,192.88,431.18,192.93,431.23,193.05Zm68.49,44.46q-2.19-.58-8.34,0l0-.16.2-1.72q2.86.78,4.61-3.42L500,218.38l1.81-6.15c.46-1.69-.13-2.76-1.75-3.2l-.24-.06a1.64,1.64,0,0,1,.18-1.32c.26-.53.52-.76.77-.69a76.2,76.2,0,0,0,11.33,3.24l-.49,1.81-1.3-.35c-1.44.63-2.51,2.2-3.18,4.71l-.46,1.7L505.19,223l.34.24q7.35,2,8.67,0c1.68-.54,2.91-2.29,3.72-5.26q1.71-6.35-1.12-9.58a14,14,0,0,0-6.75-4.12,83.82,83.82,0,0,0-15.57-2l-1.06-.14c-1.88-.87-2.76-1.5-2.66-1.88l-.55-5,.24.06a15.83,15.83,0,0,0,7.22,3.76,41.83,41.83,0,0,0,7.74.94,33,33,0,0,1,8.25,1.29,16.91,16.91,0,0,1,6.58,4.62,3,3,0,0,1,.63,2.15l1,.11,4,8.81,0,.14a15.88,15.88,0,0,0-2.37,4.67,12,12,0,0,1-6.12,4.84l-.53.43c.29.08.74,1,1.34,2.68l-.08.27-.39.94,1.23,1.55.53-.46.14,0a26.46,26.46,0,0,1,3.28,8.14,30.69,30.69,0,0,0,3.54,10.27,8.72,8.72,0,0,0,3,2.47l5.25.41.24.06.62.31-.15.54a7.63,7.63,0,0,1-7.07,1.28q-5.25-1.19-8.22-6.63-3.93-7.12-4.77-10.75L511.92,228l-2.87-.64-3.19-.86-.72-.34-.41,0-1.41,5.19c0,.18-.38.25-1,.19l-.15.57c-.07.27.14.47.65.61q-.81,3,.81,4.6l1.61.58-.38,1.41ZM671.48,332.9l-.27,2.08,1.19.56,1.81,3.22-1.56.38a3.52,3.52,0,0,0-2.41-1.55,15.77,15.77,0,0,0-4.57,1.33l-4.92,2.47-1.28.08-.33-.65-2.28-.42-.6,1.12-.85.42,0,1.33.26.53-1.12.56-10.47,5.79a4.53,4.53,0,0,0-2.46,3.21l.54,1.89-1.47.74a124.87,124.87,0,0,0-6.29-12.5l1.73-1.06a3.34,3.34,0,0,0,1.86,1.62,6.7,6.7,0,0,0,3.14-.78L664,331.58a16.15,16.15,0,0,0,2.17-2.48c.35-.56.23-1.41-.35-2.56l2.33-.8ZM619.42,272l-.2.6a1.44,1.44,0,0,0,.09,1.21,9.65,9.65,0,0,1-3.18,1.48,7.36,7.36,0,0,1-4.49.36,7.2,7.2,0,0,1-2.32-1l-.37.42a13.78,13.78,0,0,1,.6,4.57,25.4,25.4,0,0,1-1.5,5.51l-.58,2.56q-3.87,1.43-4.52,2.16c-3,.92-4.81,1.14-5.36.66h-.19q-.21-.19-.51.15l-.63-.56c-.37.41-.7.5-1,.25a37.9,37.9,0,0,1-5.92-4.5l-5.62-6.36a21.31,21.31,0,0,0-5.88-3.34c-.12.14-.39,0-.81-.35l.09-.1.37-.84c.77-.86,2.07-.78,3.9.26,2.1.34,3.46.16,4.1-.55l8.72-9.78.42.38.09-.11v-.22l.09-.1a1.24,1.24,0,0,0,.9.05l.28-.32c-.21-.18-.25-.35-.13-.49.15.14.42.05.8-.26l-.11-.09-.82-.55L599,259.5q2.94-3.3,1.77-4.35l-.23-.58c.74-.61,1.17-.87,1.26-.78a17.4,17.4,0,0,0,3.11,4.12l4.67,3.6-1.35,1.09-.21-.19q-2-1.77-3.88.36l-10.72,12q-3.88,4.35-2.73,5.37a6.56,6.56,0,0,0,2.05,3,7.5,7.5,0,0,0,6.69,1.76,24,24,0,0,1,3.09-1.66l.08-1.06q2.46-2.76,1.83-7.71-1.3-4-2.68-5.25l-.21-.18.21-.23q2.75-1.74,3.77-.83a7.15,7.15,0,0,0,1.41,2.42q1.86,1.65,6-1.69l1-.35q2.08-3.06-.23-8a31.53,31.53,0,0,0-5.51-5.81,45,45,0,0,0-10.82-6.25,6.32,6.32,0,0,1-1.57-.83,17.67,17.67,0,0,1-1.42-1.63c-.69-.85-.89-1.43-.62-1.74l1.58-4.71.21.19a17.81,17.81,0,0,0,5.14,6.89,60,60,0,0,0,7.38,5.1,48.35,48.35,0,0,1,6.93,4.81Q622.58,263.2,619.42,272Z" fill="#fff"/><path d="M432.9,213.88q-1.18-2.74-1.62-3.84.12-1.83-.45-2.34a4.41,4.41,0,0,1-1-1.49c-.3-.65-.51-1.13-.65-1.45s-.26-.62-.37-.91q-1.49,5.52-3.16,11.28Z" fill="#fff"/><path d="M340.65,314.24l-9.13,10.5-8.27,7.15-6.94,10.35c-12,16.19-21.15,26.69-25.31,45.61-3.45,13.39-2.68,24.3-.6,38.4,3.45,33.73,23.75,57.52,51.29,75.32,10.35,6.94,22.88,13.74,34.8,11.81C369,500.75,347.32,488,336.67,476.71c-6-7.25-8.93-18-12.89-27.59-5-8.42-11.27-20-6.5-30.23,5,8.42,4,9.58,7.77,17l9.79,14.66c3.8,7.4,3.09,12.93,7.91,19.17,6.14,9.43,27,25.51,36.33,33.63,2.33,2,5.83,5.07,6.14,9.43,1.62,7.56-11,15,1.68,24,1.16,1,3.5,3,5.68,2.89,14.56,4.46,34.29-11.16,47.07-16.44,14-4.26,17.75,3.14,31.7-1.12,15.12-3.25,36.42-27.75,45.39-40.44,1.88-4.51,7-10.34,7.66-15.87,4.61-12.38-3.71-21.66-1.43-36.07,2.59-10,13.44-27.24,9-43.37-.16-2.18-1.47-5.38-2.64-6.39-9.79-14.66-18.31,4.57-29.52,1-7.87-2.74-23.49-22.47-28.31-28.71l6.54-.46,10.5,9.13,12.68,9c8.83-14.87-7.35-26.89-16.84-37.18-26-26.68-43.48-41.89-82.89-41.33C379.7,292.88,357.18,299.93,340.65,314.24ZM418.74,490.7c-8,11.51-19,10.1-28.35,2-15.17-13.18-26-26.68-15.43-48.24,13-17.35,34.85-18.87,46.11,1.16C427.51,459.4,426.55,477,418.74,490.7Zm52.45-17.92-5.63,13.55c-9.18-5.93-17.81-19.58-22.93-30.18-1.32-3.19-4-9.59-3.1-12.93,2.89-5.69,9.74-1.78,12.08.25,11.36,5.78,23.74,10.39,33.07,18.51Zm14.65-56.91c-11.16,12.83-44.18,10.76-54.83-.55-8.48-11.46-5-24.86.75-36.22,12.17-14,29.93-10.86,43.78-.87,3.5,3,8,4.92,10.35,6.95C493,393.45,491.77,406.69,485.84,415.87Z" fill="#fff"/><path d="M575.14,548.81c7.1-8.17,12.32-11.83,14.76-24s-4.07-42.46-11.37-52.91L563.2,456.49c-9.64-12.48-6.29-11.62-20.29-23.79-1.88,4.51-5.93,9.18-6.64,14.71-2,18.77,22.93,30.18,26.64,51.84,1.77,9.74-5,22.27-12.12,30.44-13.19,15.16-30.58,32.82-51.84,26.63-15.57-3.29-19-20.59-43-18.91-3.19,1.32-9.74,1.78-11.76,4.11-3.05,3.5,2.63,6.39,5,8.42l24.35,19.12c17.5,15.22,21.56,10.55,39.16,11.51,11.06,1.42,21.1,4,31.7-1.12C557,572,567.18,560.32,575.14,548.81Z" fill="#fff"/><path d="M507.07,547c2.91,2.54,6.71,5.32,9.47,5.68s6.74-3.89,7-5.73c-.14-1.78-6.3-4-8.5-4.07S510.69,544,507.07,547Z" fill="#fff"/><path d="M523.2,542.57c1.16,1,4.51,1.88,6.69,1.73,6.39-2.64-3.25-15.12-7.46-12.63-3.19,1.32-4,4.67-6.08,7Z" fill="#fff"/><path d="M529.69,525.68a9.08,9.08,0,0,0,6.87,10c3.33.59,5.73-2.11,6.67-4.37.43-1.67-1-6-3.46-8.39S533.67,519.92,529.69,525.68Z" fill="#fff"/><path d="M503.46,511.08c-5.68-2.89-9.89-.41-9.59,4,1.32,3.19,7.16,8.26,9.49,10.29,4.37-1.74,7.17-8.46,7.17-8.46Z" fill="#fff"/><path d="M502.26,504.16c.3,4.27,7,12,12.41,10.52,2.45-1.7,6.14-4.91,2.48-10.14l-3.4-3s-3.84-3.26-6.84-3.91C505.89,498.85,502.1,502,502.26,504.16Z" fill="#fff"/><path d="M547.69,516.75s5.43,2.77,6.7,1.72c1.38-.66.86-3.34.71-5.52C554,497.68,532.71,509,547.69,516.75Z" fill="#fff"/><path d="M487.22,518c-1.43.81-2.78,3.19-3.8,4.36-3.78,12.65,21.87,14.91,14.41,2.28l-3.5-3S488.33,517.52,487.22,518Z" fill="#fff"/><path d="M511,493s10.1,12.25,11.82,12.32c2.14-.82,6-5.7,6.32-8.49-3.5-3.05-7.4-6.81-10.15-8S515.1,489.44,511,493Z" fill="#fff"/><path d="M536.27,487.06c-.07-1.09-5.64-8.7-9.37-10.81-2.74-.27-4.82,1.77-7.61,4.42l5.47,5.9C528.26,489.62,535.72,494.77,536.27,487.06Z" fill="#fff"/><path d="M566.54,638.32a17,17,0,0,0-4-2.2,13.78,13.78,0,0,0-10.62,1.3l-3.41,1.88-9.25,6.51q-6.12,2.72-7.67,2.37l-.13.07,3.35,2.53c.24.44,1.31.28,3.22-.5l.69-.37q6.31-6.17,10-8.16c1.14-.58,1.75-.82,1.8-.72a8.92,8.92,0,0,1,6.81-.78l.1-.06,0-.34.6-.28-.05-.59.8-.07.68.55.08-.15-.28.67-.79.49.24.14q1.3-.09,3.63,2.86a21.67,21.67,0,0,1,1.52,3.8c0,3.1-1,5.24-3.16,6.4l-3.53,1.8-.15.08-.16,0c-.36-.65-.68-.89-1-.73a1.58,1.58,0,0,1-.05-1.12l0-.1c-.23-.41-.51-.58-.85-.51a1.37,1.37,0,0,1-.09-1l-1.43-2.6a3.73,3.73,0,0,1-.48-1.71c-.35-2.08.12-3.46,1.4-4.16l-.56-.67-6,3.58-.66.36-3,1.33a.83.83,0,0,0-.45.81l.3.55a7,7,0,0,1,3.37.26l9.16,16.68.68,1.48q.87,1.57-1.79,4.5l-.12.07a3.56,3.56,0,0,0,1.33.84,30.52,30.52,0,0,1,5.64-4.53l4.08-2.25,1-.71-.85-1-.69.38-.5.41q-1.82,1-4.43-2.93l-.21.11-.29.57-.1.05-.41-.45c-.08-.14.09-.38.5-.71l-.65-.65.1-.59-.07-.13-1.8-3.54,3.75-1.76.81-.44a17.4,17.4,0,0,0,5.21-5.28q2.32-5.14.28-8.88l.07-2.58Q568,638.2,566.54,638.32Z" fill="#fff"/><path d="M573.36,625.74l-1.78,0L566,629.44l.95,1.86c.9-.62,1.6-.83,2.11-.6a13.54,13.54,0,0,1,2.35,1.52L584,650a5.73,5.73,0,0,1,1,2.54,2.86,2.86,0,0,1-1.14,1.76l1.1,1.32a106.09,106.09,0,0,1,9.74-6.79l-.8-1.15-1.52.68a3.82,3.82,0,0,1-3-1.68l-6.14-8.09-.61-.88-.41.29-1.12.14-.46-.66-1-.37.08-2,.51-.35-.22-1.06-2.68-3.84a13.3,13.3,0,0,1-1.67-3.68,3,3,0,0,1,1-2.21l-.5-1.27-2.5,1.91Z" fill="#fff"/><path d="M641.75,614.33l-2.68,3.59a7.42,7.42,0,0,1-3.14,1,26.26,26.26,0,0,1-9-2.12,22.29,22.29,0,0,0-7.33-1.34l-.08.08.09.59-1.67.18-.5-.71-.16-.17c-1.49-.35-2.34-.44-2.52-.26l-.08-.58A10.23,10.23,0,0,0,614,608a13.53,13.53,0,0,1-2.28-3.81l-.08-.09-8.16-1.09-.51.63a2.57,2.57,0,0,0-1.83-.52,14.17,14.17,0,0,0-6.3,2.63,27,27,0,0,0-4.67,5.33,35.09,35.09,0,0,1-4.19,5.12,13.54,13.54,0,0,1-6,3.47l-.16.15,3.86,1.88q.33.36,2.55-1l.58-.7a72,72,0,0,1,8.53-10.25,11.92,11.92,0,0,1,6-3q3.6-.57,7.38,3.54c1.77,1.93,2.46,3.61,2.09,5q.82,1.86-3.94,6.22l-.32.14-2.87-3.27-1-1.1c-1.48-1.62-2.13-3.1-1.92-4.42l.84-.77L600.57,611a62.51,62.51,0,0,1-7.47,6.66q-.24.23.15.87a1.4,1.4,0,0,0,.86.72l.16-.14a1.92,1.92,0,0,1,3.08.2l3.59,4.09,8.21,9q2.22,3.15.37,4.86l1.13.92.1.1q2.38-4.66,3.81-6l3.63-2.85-.83-.92-1.15.9q-1.89.43-3.67-1.51c-.33.3-.57.37-.73.19l-.34-.37c.32-.42.43-.69.32-.81l-3.08-3.36.16-.31.58-.36,2.06-1.9,1.76-1.77,8.8,2.14a40.49,40.49,0,0,0,9.88,1.45,10.43,10.43,0,0,0,8.48-2.88,6.44,6.44,0,0,0,2.3-5.65l-.32-.35-.5.3Z" fill="#fff"/><path d="M655.16,582.5a2.52,2.52,0,0,1-1.36.6l-2.87.42a3.85,3.85,0,0,0-2.15-1.52c-.89-.25-2.19-.68-3.91-1.29l.47-.75-2.27-2.88-1.88,1.65L639,578l-2.2-.72-1.18.86L634.4,578l-.33-.67.69-.52-1.27-.53c-.74-.25-1.72-.52-2.92-.82a51.37,51.37,0,0,0-6.09-.94l-.82-.24c-.1,0-.21,0-.31.17a1.48,1.48,0,0,0-.23.42,32,32,0,0,1-1.92,3l1,2.56c1.82-.18,2.89.19,3.23,1.11a13.48,13.48,0,0,0,1.87,3.24,54.2,54.2,0,0,1,3.05,4.74,57.78,57.78,0,0,0,4,5.93,31.72,31.72,0,0,1,2.08,4,14.07,14.07,0,0,0,1.34,2.61,4.79,4.79,0,0,1,.89,1.87,22.63,22.63,0,0,1-1.41,4.24c-.08.21-.07.38,0,.48a.42.42,0,0,0,.47.07l.35.44c-.07.23,0,.37.32.43s.59-.4.94-1.39l.13-.82.28-.53.21,0,.12-.56.14-.73.46-.19,1-1.32a3.79,3.79,0,0,0,.53-1l2.6-3.4c.15-.16.28-.3.38-.43l.28-.38c.14-.19.19-.33.14-.42a3.23,3.23,0,0,0-.58-.5l-.32-.24-1.07.39q-1.52,1.95-2.79,1a2.94,2.94,0,0,1-.44-.4,9.24,9.24,0,0,1-.69-.86c-.3-.4-.69-.94-1.19-1.63s-1.14-1.59-2-2.7a5.27,5.27,0,0,0,.31-1.76l.7.25c2.45-3.84,3.81-6,4.06-6.34l3.76,1.32c.82.28,1.46.52,1.94.7s.83.32,1.07.44a2.65,2.65,0,0,1,.53.31,1.18,1.18,0,0,1,.56,1,4.11,4.11,0,0,1-.7,1.75c-.14.24-.18.4-.14.49a2.1,2.1,0,0,0,.56.5,1.54,1.54,0,0,0,.67.37c.12,0,.49-.42,1.12-1.25l.41-.6q.32-.47,5.51-7.32a1,1,0,0,0-.48-.92,3.75,3.75,0,0,0-.64-.42C655.78,582,655.54,582.17,655.16,582.5Zm-20.43,7.6q-2.78-4.27-5.49-8.29c.25.09.51.18.79.26s.71.23,1.3.4a3.87,3.87,0,0,0,1.52.17c.42-.06,1,.28,1.75,1,.63.21,1.75.58,3.36,1.09Z" fill="#fff"/><path d="M644.34,549.15a8.16,8.16,0,0,1,3.19-1.16,15.34,15.34,0,0,1,5.12,0l-.28-2a43,43,0,0,1-9.26-3.2l-.65,1.22-.65,1.21-1.27,2.39q-3.84,9.35-5.14,9.71L634,559.72l-.45.75a1.64,1.64,0,0,0-.92,1.61l8,6.09,1-1.4c-.9-.51-1.76-1-2.59-1.5l0-1c-.35-.91-.69-1.82-1-2.76s.14-2.41,1.4-4.45l2.15.73.77,1L661,569.11a22.29,22.29,0,0,1,.41,4.19l1.25.94a14.76,14.76,0,0,0,1.72-4,7.71,7.71,0,0,1,1.66-3.06A43.19,43.19,0,0,0,669.3,562l-1.5-.84-1.26,1.15c-1.44.5-3.26.28-5.47-.68l-2,0-2-.82-.47-1.26-1.93-1.46-2.77-1.57-9.19-5.14A5.19,5.19,0,0,1,644.34,549.15Z" fill="#fff"/><path d="M684.71,517.71a6.57,6.57,0,0,1-.38,2.72q-.42,1-2.06,4a48.15,48.15,0,0,0-2.79,6l.75.57-.7,1-.26-.58-.58-.22a39.65,39.65,0,0,1-1.1,3.81,5.21,5.21,0,0,1-.86,1.6c-.28.3-1.25.27-2.91-.08l-8.61-3.31.86-2.44,1.14-3.08a3.45,3.45,0,0,1,2.39-2.46,6.46,6.46,0,0,1,3.23.14l.85-1.76-9.3-3.42-.65,1.69a11.09,11.09,0,0,1,1.22,1.3,4.77,4.77,0,0,1,.76,1.7l-.65,1.71-2.31,5.68-5.48-2.1-2.95-.53-1.15-1.05-.69-.26-.42-.95.26-.69.29-1.88a9.63,9.63,0,0,1,3-3.87c1-.56,2-1.12,3.05-1.66a20.23,20.23,0,0,1,5.44-1.42l-.8-2-3.87-.51a18.23,18.23,0,0,1-4.66-1.72,48.76,48.76,0,0,0-1.85,6.46l-.1.27-.12.7-.9.69-.2.53L646,536.53l1.5,1.47a6,6,0,0,1,1.69-2.32,3.13,3.13,0,0,1,1.87-.55,20.29,20.29,0,0,1,3.93.8l3.53,1.08a6.27,6.27,0,0,0,.45-1.63l.19-.51.58.22.22.23-.15.38-.1.26-.21.23,0,.44.12.48.43.16.09.62,9.45,3.5a16,16,0,0,1,4,2.13,3.93,3.93,0,0,1,1,1.51,5.87,5.87,0,0,1-.16,2.71l1.3.65c.5-1.31.9-2.41,1.19-3.29s.58-1.81.88-2.77,1.13-3.06,2.49-6.29,2.39-5.75,3.09-7.58a25.32,25.32,0,0,1,1.83-4,13.38,13.38,0,0,0,1.37-3.57c.39-1.54.68-2.53.84-3s-.25-.86-1.24-1.3S684.68,516.55,684.71,517.71Z" fill="#fff"/><polygon points="397.79 457.32 390.6 455.43 393.47 462.28 389.46 468.53 396.86 467.92 401.56 473.67 403.26 466.44 410.19 463.74 403.84 459.89 403.42 452.47 397.79 457.32" fill="#fff"/><path d="M798.55,420.72l-79.78,5.93A274,274,0,0,1,464.88,718.72l5.22,79.83A354,354,0,0,0,798.55,420.72ZM550.41,750.37l-6.95,8.68L542.55,748,532.14,744l10.26-4.3.53-11.11,7.25,8.43,10.73-2.93-5.78,9.5,6.11,9.3Zm75.36-37.57L621.29,723l-3.75-10.47-11.07-1.11,8.8-6.8-2.37-10.87,9.2,6.27,9.6-5.61-3.12,10.67,8.31,7.41ZM688.82,657l-1.68,11-6.33-9.14-11,1.8,6.74-8.86-5.1-9.88,10.5,3.67,7.82-7.9-.25,11.12,9.94,5Zm47.7-59.15-8.49-7.2-10.14,4.58,4.22-10.3-7.49-8.23,11.1.84,5.51-9.67,2.64,10.81L744.76,581l-9.46,5.85Zm29.53-80.54L756,512.56l-8.61,7.05,1.42-11-9.37-6,10.94-2.06,2.82-10.77,5.34,9.76,11.11-.64L762,507Z" fill="#fff"/><path d="M825.86,511.21q-1.36,7.88-3.07,15.71l58.9,11.44,2.92-15,.12-.71Z" fill="#fff"/><path d="M292.64,26.31l19.54,56.74q7.51-2.77,15.12-5.23L307.77,21.11l-.7.24Z" fill="#fff"/><path d="M511.21,65q7.88,1.37,15.7,3.07l11.45-58.9-15-2.92-.69-.12Z" fill="#fff"/><path d="M864.51,292.64l-56.74,19.54c1.84,5,3.6,10,5.23,15.12l56.7-19.53c-.07-.22-.14-.45-.22-.68Z" fill="#fff"/><path d="M379.61,825.86q-7.89-1.36-15.71-3.07l-11.44,58.9,15,2.91.73.13Z" fill="#fff"/><path d="M598.18,864.51l-19.54-56.74c-5,1.84-10,3.6-15.12,5.23L583,869.7l.67-.21Z" fill="#fff"/><path d="M198.27,741.91c-2.05-1.71-4.08-3.43-6.1-5.18s-4-3.53-6-5.32L146.82,776.7c2,1.78,4,3.56,6,5.31s4.05,3.48,6.09,5.19Z" fill="#fff"/><path d="M692.55,148.91c2.05,1.71,4.08,3.43,6.1,5.18s4,3.53,6,5.32L744,114.12c-2-1.78-4-3.56-6-5.31s-4-3.48-6.09-5.19Z" fill="#fff"/><path d="M741.91,692.55c-1.71,2.05-3.43,4.08-5.18,6.1s-3.53,4-5.32,6L776.7,744c1.78-2,3.56-4,5.31-6s3.48-4,5.19-6.09Z" fill="#fff"/><path d="M26.31,598.18,83,578.64q-2.76-7.51-5.22-15.12L21.11,583.05c.08.23.16.46.23.69Z" fill="#fff"/><path d="M819.53,688.24l-50-33.09q-2.17,3.35-4.43,6.66l50,33.1Z" fill="#cecece"/><path d="M352.57,9.16l12,58.78c2.61-.56,5.22-1.1,7.84-1.6l-12-58.77-.49.1Z" fill="#cecece"/><path d="M890.31,414.18c-.09-1.29-.19-2.58-.29-3.87l-59.88,4.19c.11,1.33.24,2.65.33,4s.15,2.67.23,4l59.88-4.19c-.08-1.29-.16-2.58-.25-3.88Z" fill="#cecece"/><path d="M192.6,153.63l-39.72-44.91-6,5.31,39.73,44.91Q189.59,156.26,192.6,153.63Z" fill="#cecece"/><path d="M688.24,71.29l-33.09,50q3.35,2.18,6.66,4.43l33.1-50Z" fill="#cecece"/><path d="M737.19,192.6l44.9-39.72-5.3-6-44.91,39.73Q734.57,189.59,737.19,192.6Z" fill="#cecece"/><path d="M831,465c-.13,2.67-.31,5.33-.49,8l59.86,3.66v-.06l.44-7.28c0-.22,0-.43,0-.65Z" fill="#cecece"/><path d="M465,59.86c2.67.13,5.33.31,8,.49L476.63.49h-.1L469.24,0l-.59,0Z" fill="#cecece"/><path d="M810.28,571.71l56.81,19,2.54-7.59-56.82-19c-.14.42-.26.84-.4,1.26Q811.38,568.56,810.28,571.71Z" fill="#cecece"/><path d="M526.29,822.88c-2.61.56-5.22,1.1-7.84,1.6l12,58.77.59-.12,7.15-1.45.1,0Z" fill="#cecece"/><path d="M844.52,644.52l3.51-7.19-53.84-26.26q-1.71,3.61-3.51,7.19Z" fill="#cecece"/><path d="M822.88,364.53c.56,2.61,1.1,5.22,1.6,7.84l58.77-12-.12-.63-1.46-7.15v-.06Z" fill="#cecece"/><path d="M226.19,127.55q3.28-2.26,6.63-4.47L199.33,73.42l-6.64,4.48Z" fill="#cecece"/><path d="M812.92,192.69l-49.65,33.5q2.26,3.28,4.47,6.63l49.66-33.49Z" fill="#cecece"/><path d="M637.33,42.79,611.07,96.63q3.61,1.71,7.19,3.51L644.52,46.3Z" fill="#cecece"/><path d="M269.56,101.67c2-1,4-2,6-3,.39-.2.79-.38,1.19-.57L250,44.48l-7.16,3.57Z" fill="#cecece"/><path d="M564.12,78l1.26.4q3.18,1,6.33,2.13l19-56.81-7.59-2.54Z" fill="#cecece"/><path d="M842.77,242.83l-53.62,26.73q1.51,3,3,6c.2.39.38.79.57,1.19L846.34,250Z" fill="#cecece"/><path d="M414.24.5c-1.31.09-2.62.2-3.93.3l4.19,59.88c1.33-.11,2.65-.24,4-.33s2.67-.15,4-.23L418.29.24l-3.93.25Z" fill="#cecece"/><path d="M425.84,831c-2.67-.13-5.33-.31-8-.49l-3.66,59.86,7.48.46.51,0Z" fill="#cecece"/><path d="M476.57,890.32c1.32-.09,2.63-.2,3.94-.3l-4.19-59.88c-1.33.11-2.65.24-4,.33s-2.67.15-4,.23l4.19,59.88,3.94-.25Z" fill="#cecece"/><path d="M202.58,819.53l33.09-50q-3.34-2.17-6.66-4.43l-33.1,50Z" fill="#cecece"/><path d="M153.63,698.22l-44.91,39.72,5.31,6,44.91-39.73Q156.26,701.23,153.63,698.22Z" fill="#cecece"/><path d="M698.22,737.19l39.72,44.9,6-5.3L704.2,731.88Q701.23,734.57,698.22,737.19Z" fill="#cecece"/><path d="M71.29,202.58l50,33.09q2.18-3.34,4.43-6.66l-50-33.1Z" fill="#cecece"/><path d="M77.9,698.13l49.65-33.5q-2.26-3.28-4.47-6.63L73.42,691.49Z" fill="#cecece"/><path d="M326.7,812.81l-1.26-.4q-3.18-1-6.33-2.13l-19,56.81,7.58,2.54Z" fill="#cecece"/><path d="M253.49,848l26.26-53.84q-3.62-1.71-7.19-3.51L246.3,844.52Z" fill="#cecece"/><path d="M621.26,789.15q-3,1.51-6,3c-.39.2-.79.38-1.19.57l26.73,53.63,7.16-3.57Z" fill="#cecece"/><path d="M9.16,538.25l58.77-12c-.55-2.61-1.09-5.22-1.59-7.84l-58.77,12,.09.45Z" fill="#cecece"/><path d="M80.54,319.11l-56.81-19-2.54,7.58L78,326.7c.14-.42.26-.84.4-1.26Q79.44,322.26,80.54,319.11Z" fill="#cecece"/><path d="M48.05,648l53.62-26.73c-1-2-2-4-3-6-.2-.39-.38-.79-.57-1.19L44.48,640.83Z" fill="#cecece"/><path d="M59.86,425.84c.13-2.67.31-5.33.49-8L.49,414.19,0,421.71l0,.46Z" fill="#cecece"/><path d="M664.63,763.27q-3.28,2.26-6.63,4.47l33.49,49.66,6.64-4.48Z" fill="#cecece"/><path d="M.8,480.51l59.88-4.19c-.11-1.33-.24-2.65-.33-4s-.15-2.67-.23-4L.24,472.53Q.48,476.52.8,480.51Z" fill="#cecece"/><path d="M42.79,253.49l53.84,26.26q1.71-3.62,3.51-7.19L46.3,246.3Z" fill="#cecece"/><path d="M65,379.61q1.37-7.89,3.07-15.71L9.13,352.46l-2.91,15c0,.24-.09.47-.13.71Z" fill="#fff"/></g></g></svg>